<svg width="92" height="25" viewBox="0 0 92 25" fill="none" xmlns="http://www.w3.org/2000/svg">
<path d="M32 10.878C32 9.35267 32.33 7.996 32.99 6.808C33.65 5.60533 34.5667 4.674 35.74 4.014C36.928 3.33933 38.27 3.002 39.766 3.002C41.5993 3.002 43.1687 3.486 44.474 4.454C45.6134 5.29898 46.4232 6.41217 46.9033 7.79358C47.0109 8.10325 46.7712 8.414 46.4434 8.414H43.2714C43.0787 8.414 42.9057 8.30169 42.8091 8.13498C42.5135 7.62525 42.1225 7.22692 41.636 6.94C41.0787 6.60267 40.4407 6.434 39.722 6.434C38.5633 6.434 37.6247 6.83733 36.906 7.644C36.1873 8.45067 35.828 9.52867 35.828 10.878C35.828 12.2273 36.1873 13.3053 36.906 14.112C37.6247 14.9187 38.5633 15.322 39.722 15.322C40.4407 15.322 41.0787 15.1533 41.636 14.816C42.1225 14.5291 42.5135 14.1308 42.8091 13.621C42.9057 13.4543 43.0787 13.342 43.2714 13.342H46.4434C46.7712 13.342 47.0109 13.6527 46.9033 13.9624C46.4232 15.3438 45.6134 16.457 44.474 17.302C43.1687 18.2553 41.5993 18.732 39.766 18.732C38.27 18.732 36.928 18.402 35.74 17.742C34.5667 17.0673 33.65 16.136 32.99 14.948C32.33 13.76 32 12.4033 32 10.878Z" fill="#292929"/>
<path d="M52.1578 2.342C52.7101 2.342 53.1578 2.78972 53.1578 3.342V17.622C53.1578 18.1743 52.7101 18.622 52.1578 18.622H50.3958C49.8435 18.622 49.3958 18.1743 49.3958 17.622V3.342C49.3958 2.78972 49.8435 2.342 50.3958 2.342H52.1578Z" fill="#292929"/>
<path d="M57.7761 5.07C57.1161 5.07 56.5734 4.87933 56.1481 4.498C55.7374 4.102 55.5321 3.618 55.5321 3.046C55.5321 2.45933 55.7374 1.97533 56.1481 1.594C56.5734 1.198 57.1161 1 57.7761 1C58.4214 1 58.9494 1.198 59.3601 1.594C59.7854 1.97533 59.9981 2.45933 59.9981 3.046C59.9981 3.618 59.7854 4.102 59.3601 4.498C58.9494 4.87933 58.4214 5.07 57.7761 5.07ZM58.6461 6.346C59.1984 6.346 59.6461 6.79372 59.6461 7.346V17.622C59.6461 18.1743 59.1984 18.622 58.6461 18.622H56.8841C56.3318 18.622 55.8841 18.1743 55.8841 17.622V7.346C55.8841 6.79372 56.3318 6.346 56.8841 6.346H58.6461Z" fill="#292929"/>
<path d="M66.1344 8.084C66.501 7.512 67.007 7.05 67.6524 6.698C68.2977 6.346 69.053 6.17 69.9184 6.17C70.9304 6.17 71.847 6.42667 72.6684 6.94C73.4897 7.45333 74.135 8.18667 74.6044 9.14C75.0884 10.0933 75.3304 11.2007 75.3304 12.462C75.3304 13.7233 75.0884 14.838 74.6044 15.806C74.135 16.7593 73.4897 17.5 72.6684 18.028C71.847 18.5413 70.9304 18.798 69.9184 18.798C69.0677 18.798 68.3124 18.622 67.6524 18.27C67.007 17.918 66.501 17.4633 66.1344 16.906V23.474C66.1344 24.0263 65.6867 24.474 65.1344 24.474H63.3724C62.8201 24.474 62.3724 24.0263 62.3724 23.474V7.346C62.3724 6.79372 62.8201 6.346 63.3724 6.346H65.1344C65.6867 6.346 66.1344 6.79372 66.1344 7.346V8.084ZM71.5024 12.462C71.5024 11.5233 71.2384 10.79 70.7104 10.262C70.197 9.71933 69.559 9.448 68.7964 9.448C68.0484 9.448 67.4104 9.71933 66.8824 10.262C66.369 10.8047 66.1124 11.5453 66.1124 12.484C66.1124 13.4227 66.369 14.1633 66.8824 14.706C67.4104 15.2487 68.0484 15.52 68.7964 15.52C69.5444 15.52 70.1824 15.2487 70.7104 14.706C71.2384 14.1487 71.5024 13.4007 71.5024 12.462Z" fill="#292929"/>
<path d="M80.066 3.178C80.6183 3.178 81.066 3.62572 81.066 4.178V17.622C81.066 18.1743 80.6183 18.622 80.066 18.622H78.304C77.7517 18.622 77.304 18.1743 77.304 17.622V4.178C77.304 3.62572 77.7517 3.178 78.304 3.178H80.066Z" fill="#292929"/>
<path d="M91.8003 10.076C91.8003 10.6283 91.3526 11.076 90.8003 11.076H89.2483V17.798C89.2483 18.3503 88.8006 18.798 88.2483 18.798H86.774C86.2218 18.798 85.774 18.3503 85.774 17.798V11.076H84.222C83.6698 11.076 83.222 10.6283 83.222 10.076V8.71C83.222 8.15772 83.6698 7.71 84.222 7.71H85.774V4.882C85.774 4.32972 86.2218 3.882 86.774 3.882H88.2483C88.8006 3.882 89.2483 4.32972 89.2483 4.882V7.71H90.8003C91.3526 7.71 91.8003 8.15772 91.8003 8.71V10.076Z" fill="#292929"/>
<path fill-rule="evenodd" clip-rule="evenodd" d="M19.6976 8.71088C19.4034 8.86171 19.0429 8.74479 18.8925 8.44973C18.0972 6.88972 16.8014 5.64361 15.2138 4.9122C13.6262 4.18079 11.8392 4.00668 10.1409 4.41792C8.44252 4.82917 6.9317 5.80181 5.85186 7.17914C4.77201 8.55646 4.18603 10.2582 4.18832 12.0103C4.19062 13.7623 4.78107 15.4625 5.86453 16.837C6.94799 18.2115 8.46135 19.1801 10.1608 19.5869C11.8602 19.9936 13.6467 19.8148 15.2324 19.0792C16.8181 18.3436 18.1106 17.0941 18.9018 15.532C19.0514 15.2365 19.4116 15.1187 19.7062 15.2687L22.3736 16.6272C22.6682 16.7772 22.7857 17.1384 22.6361 17.4338C21.419 19.8371 19.4304 21.7594 16.9909 22.8911C14.5513 24.0228 11.8029 24.2979 9.18839 23.6721C6.5739 23.0463 4.24565 21.5561 2.57879 19.4415C0.91193 17.327 0.00354754 14.7112 1.03692e-05 12.0158C-0.0035268 9.32037 0.897987 6.70224 2.55929 4.58329C4.22059 2.46433 6.54492 0.96795 9.15776 0.335267C11.7706 -0.297416 14.5198 -0.0295559 16.9623 1.09569C19.4048 2.22093 21.3984 4.13802 22.6218 6.53805C22.7722 6.83311 22.6556 7.19457 22.3614 7.34539L19.6976 8.71088Z" fill="#2962FF"/>
<path d="M24 11.9736C24 13.1334 23.0624 14.0736 21.9058 14.0736C20.7493 14.0736 19.8117 13.1334 19.8117 11.9736C19.8117 10.8138 20.7493 9.87359 21.9058 9.87359C23.0624 9.87359 24 10.8138 24 11.9736Z" fill="#2962FF"/>
<path d="M13.4211 7.51883C14.2389 6.69872 15.5648 6.69873 16.3826 7.51883C17.2005 8.33893 17.2005 9.66857 16.3826 10.4887L10.4595 16.4284C9.64164 17.2485 8.31569 17.2485 7.49787 16.4284C6.68005 15.6083 6.68006 14.2786 7.49788 13.4585L13.4211 7.51883Z" fill="#2962FF"/>
</svg>
