<svg width="24" height="24" viewBox="0 0 24 24" fill="none" xmlns="http://www.w3.org/2000/svg">
<path fill-rule="evenodd" clip-rule="evenodd" d="M19.6976 8.71088C19.4034 8.86171 19.0429 8.74479 18.8925 8.44973C18.0972 6.88972 16.8014 5.64361 15.2138 4.9122C13.6262 4.18079 11.8392 4.00668 10.1409 4.41792C8.44252 4.82917 6.9317 5.80181 5.85186 7.17914C4.77201 8.55646 4.18603 10.2582 4.18832 12.0103C4.19062 13.7623 4.78107 15.4625 5.86453 16.837C6.94799 18.2115 8.46135 19.1801 10.1608 19.5869C11.8602 19.9936 13.6467 19.8148 15.2324 19.0792C16.8181 18.3436 18.1106 17.0941 18.9018 15.532C19.0514 15.2365 19.4116 15.1187 19.7062 15.2687L22.3736 16.6272C22.6682 16.7772 22.7857 17.1384 22.6361 17.4338C21.419 19.8371 19.4304 21.7594 16.9909 22.8911C14.5513 24.0228 11.8029 24.2979 9.18839 23.6721C6.5739 23.0463 4.24565 21.5561 2.57879 19.4415C0.91193 17.327 0.00354754 14.7112 1.03692e-05 12.0158C-0.0035268 9.32037 0.897987 6.70224 2.55929 4.58329C4.22059 2.46433 6.54492 0.96795 9.15776 0.335267C11.7706 -0.297416 14.5198 -0.0295559 16.9623 1.09569C19.4048 2.22093 21.3984 4.13802 22.6218 6.53805C22.7722 6.83311 22.6556 7.19457 22.3614 7.34539L19.6976 8.71088Z" fill="#2962FF"/>
<path d="M24 11.9736C24 13.1334 23.0624 14.0736 21.9058 14.0736C20.7493 14.0736 19.8117 13.1334 19.8117 11.9736C19.8117 10.8138 20.7493 9.87359 21.9058 9.87359C23.0624 9.87359 24 10.8138 24 11.9736Z" fill="#2962FF"/>
<path d="M13.4211 7.51883C14.2389 6.69872 15.5648 6.69873 16.3826 7.51883C17.2005 8.33893 17.2005 9.66857 16.3826 10.4887L10.4595 16.4284C9.64164 17.2485 8.31569 17.2485 7.49787 16.4284C6.68005 15.6083 6.68006 14.2786 7.49788 13.4585L13.4211 7.51883Z" fill="#2962FF"/>
</svg>
