<svg width="350" height="258" viewBox="0 0 350 258" fill="none" xmlns="http://www.w3.org/2000/svg">
<path d="M276.92 129.309C276.92 122.487 282.45 116.957 289.271 116.957H337.648C344.47 116.957 350 122.487 350 129.309V192.096C350 198.918 344.47 204.448 337.648 204.448H289.271C282.45 204.448 276.92 198.918 276.92 192.096V129.309Z" fill="white"/>
<path fill-rule="evenodd" clip-rule="evenodd" d="M337.648 117.986H289.271C283.018 117.986 277.949 123.056 277.949 129.309V192.096C277.949 198.349 283.018 203.418 289.271 203.418H337.648C343.902 203.418 348.971 198.349 348.971 192.096V129.309C348.971 123.056 343.902 117.986 337.648 117.986ZM289.271 116.957C282.45 116.957 276.92 122.487 276.92 129.309V192.096C276.92 198.918 282.45 204.448 289.271 204.448H337.648C344.47 204.448 350 198.918 350 192.096V129.309C350 122.487 344.47 116.957 337.648 116.957H289.271Z" fill="black"/>
<path d="M308.379 177.357C306.205 177.357 304.558 176.879 303.438 175.924C302.285 175.002 301.709 173.585 301.709 171.675V166.388C301.709 164.577 301.346 163.095 300.622 161.942C299.897 160.789 298.662 160.015 296.916 159.62C298.662 159.224 299.897 158.45 300.622 157.298C301.346 156.145 301.709 154.663 301.709 152.851V147.565C301.709 145.654 302.285 144.238 303.438 143.316C304.558 142.36 306.205 141.883 308.379 141.883V137.584C304.624 137.584 301.758 138.408 299.782 140.055C297.773 141.702 296.768 143.908 296.768 146.675V152.406C296.768 154.119 296.389 155.387 295.632 156.211C294.841 157.001 293.622 157.396 291.976 157.396V161.843C293.622 161.843 294.841 162.255 295.632 163.078C296.389 163.869 296.768 165.12 296.768 166.833V172.515C296.768 175.282 297.773 177.488 299.782 179.135C301.758 180.815 304.624 181.655 308.379 181.655V177.357Z" fill="#2962FF"/>
<path d="M318.734 181.655C322.489 181.655 325.371 180.815 327.38 179.135C329.356 177.488 330.344 175.282 330.344 172.515V166.833C330.344 165.12 330.723 163.869 331.481 163.078C332.238 162.255 333.441 161.843 335.087 161.843V157.396C333.441 157.396 332.238 157.001 331.481 156.211C330.723 155.387 330.344 154.119 330.344 152.406V146.675C330.344 143.908 329.356 141.702 327.38 140.055C325.371 138.408 322.489 137.584 318.734 137.584V141.883C320.875 141.883 322.522 142.36 323.675 143.316C324.794 144.238 325.354 145.654 325.354 147.565V152.851C325.354 154.663 325.733 156.145 326.491 157.298C327.215 158.45 328.451 159.224 330.196 159.62C328.451 160.015 327.215 160.789 326.491 161.942C325.733 163.095 325.354 164.577 325.354 166.388V171.675C325.354 173.585 324.794 175.002 323.675 175.924C322.522 176.879 320.875 177.357 318.734 177.357V181.655Z" fill="#2962FF"/>
<path d="M216.191 111.811L223.911 92.7687H257.363L216.191 111.811Z" fill="white"/>
<path fill-rule="evenodd" clip-rule="evenodd" d="M223.564 92.254H257.363L257.579 93.2358L215.225 112.825L223.564 92.254ZM224.257 93.2833L217.157 110.797L255.024 93.2833H224.257Z" fill="black"/>
<path d="M108.114 114.323L127.216 69.458L149.837 66.0069L151.345 113.337L128.724 124.677L108.114 114.323Z" fill="white"/>
<path fill-rule="evenodd" clip-rule="evenodd" d="M150.333 65.4106L151.87 113.65L128.724 125.253L107.452 114.566L126.855 68.9925L150.333 65.4106ZM127.578 69.9235L108.777 114.08L128.725 124.101L150.82 113.025L149.341 66.6031L127.578 69.9235Z" fill="#292929"/>
<path d="M165.755 83.505C173.475 72.6973 166.785 49.0234 166.785 48.5088C164.121 30.496 144.14 34.6132 139.508 36.6718C134.876 38.7304 125.098 43.3623 120.466 58.8018C116.761 71.1534 126.813 73.212 132.303 72.6973C133.847 77.3292 158.036 94.3126 165.755 83.505Z" fill="white"/>
<path fill-rule="evenodd" clip-rule="evenodd" d="M153.801 35.5714C148.01 34.6253 141.958 36.1462 139.717 37.1421C137.415 38.1651 133.876 39.8101 130.337 43.0961C126.802 46.3787 123.249 51.3173 120.959 58.9496C120.051 61.9751 120.002 64.3196 120.478 66.1248C120.952 67.9218 121.958 69.2243 123.24 70.1584C125.832 72.0476 129.57 72.4366 132.255 72.1849L132.662 72.1467L132.791 72.5345C132.947 73.0019 133.427 73.7056 134.244 74.5844C135.046 75.4472 136.128 76.431 137.416 77.4573C139.994 79.5097 143.371 81.7081 146.937 83.4273C150.509 85.1497 154.232 86.3724 157.511 86.5129C160.776 86.6528 163.539 85.7226 165.337 83.2058C167.197 80.6007 168.209 77.1893 168.662 73.4872C169.114 69.7898 169.004 65.8415 168.653 62.1964C168.301 58.5534 167.71 55.2272 167.205 52.778C166.953 51.5538 166.723 50.5494 166.556 49.8342C166.52 49.6816 166.487 49.5409 166.457 49.4139C166.417 49.2451 166.383 49.1004 166.356 48.9835C166.333 48.8808 166.313 48.7941 166.3 48.7277C166.293 48.6948 166.286 48.6626 166.282 48.6339C166.28 48.6223 166.275 48.5962 166.273 48.5642C165.619 44.1726 163.921 41.1723 161.704 39.1509C159.477 37.1211 156.687 36.0427 153.801 35.5714ZM162.397 38.3902C164.816 40.5956 166.613 43.8294 167.294 48.4334L167.299 48.4709V48.4775C167.301 48.4875 167.304 48.5014 167.308 48.5197C167.319 48.5738 167.336 48.6506 167.359 48.7522C167.386 48.8674 167.419 49.0076 167.458 49.1732C167.488 49.3003 167.521 49.4424 167.558 49.5997C167.727 50.3199 167.959 51.3339 168.213 52.5704C168.722 55.0425 169.321 58.4068 169.677 62.0975C170.033 65.7862 170.148 69.8149 169.684 73.6122C169.22 77.4046 168.173 81.0053 166.174 83.8041C164.112 86.6911 160.957 87.6908 157.467 87.5412C153.99 87.3923 150.123 86.106 146.49 84.3545C142.85 82.5998 139.409 80.3594 136.775 78.2625C135.459 77.214 134.337 76.1955 133.49 75.2852C132.806 74.5493 132.269 73.8501 131.972 73.2407C129.193 73.4354 125.386 72.9969 122.633 70.9903C121.179 69.9301 120.023 68.4343 119.483 66.3874C118.945 64.3488 119.028 61.8041 119.973 58.6539C122.315 50.8467 125.967 45.7496 129.637 42.3418C133.303 38.9373 136.969 37.237 139.299 36.2015C141.69 35.1388 147.945 33.5718 153.967 34.5556C156.989 35.0493 159.984 36.1903 162.397 38.3902Z" fill="#292929"/>
<path d="M119.437 30.4967C128.906 18.9685 141.567 20.8899 146.713 23.2916C154.433 17.6299 176.563 19.6878 176.048 35.6425C175.379 56.3774 150.487 49.8818 140.023 43.8776C137.964 59.5229 126.127 60.6894 120.466 59.317C116.177 54.5136 109.967 42.0248 119.437 30.4967Z" fill="#292929"/>
<path fill-rule="evenodd" clip-rule="evenodd" d="M173.149 25.8405C175.363 28.2891 176.696 31.5395 176.563 35.6591C176.392 40.9519 174.669 44.5845 171.943 46.9125C169.231 49.2291 165.598 50.191 161.724 50.3017C154.3 50.5137 145.774 47.608 140.426 44.6925C139.259 52.183 135.798 56.3381 131.836 58.4339C127.775 60.5819 123.266 60.5254 120.345 59.8172L120.189 59.7794L120.082 59.6598C117.885 57.1987 115.209 52.7904 114.285 47.5175C113.357 42.2239 114.198 36.0634 119.039 30.17C128.542 18.6013 141.211 20.2975 146.657 22.7007C148.67 21.3151 151.491 20.4234 154.569 20.0778C157.782 19.7169 161.323 19.9458 164.607 20.8653C167.89 21.7844 170.944 23.4018 173.149 25.8405ZM154.683 21.1007C151.585 21.4486 148.851 22.362 147.018 23.7066L146.772 23.8869L146.496 23.758C141.486 21.42 129.107 19.5346 119.835 30.8234C115.206 36.4582 114.417 42.3061 115.299 47.3398C116.17 52.3086 118.672 56.4882 120.743 58.8536C123.486 59.4821 127.638 59.4899 131.355 57.524C135.111 55.5371 138.502 51.4923 139.513 43.8105L139.613 43.049L140.279 43.4312C145.457 46.402 154.202 49.4867 161.694 49.2728C165.434 49.166 168.805 48.2394 171.275 46.1298C173.731 44.0316 175.37 40.7006 175.534 35.6259C175.658 31.7682 174.418 28.7783 172.386 26.5308C170.345 24.2733 167.48 22.7385 164.33 21.8565C161.181 20.9749 157.774 20.7537 154.683 21.1007Z" fill="white"/>
<path d="M130.244 115.928C117.069 115.928 111.717 106.664 110.688 102.032C72.6037 95.5026 34.0049 142.69 26.2852 158.129C18.5654 173.569 -0.476629 211.653 19.5947 240.988C35.6518 264.456 77.7502 257.628 96.7922 251.281H228.028V178.715C220.823 115.928 169.872 99.9738 152.374 103.576C150.487 107.694 143.419 115.928 130.244 115.928Z" fill="#2962FF"/>
<path d="M118.408 244.076L94.7336 251.795L108.629 202.904C162.564 187.258 172.617 222.804 170.902 242.532H128.186C124.069 242.532 119.951 243.561 118.408 244.076Z" fill="white"/>
<path fill-rule="evenodd" clip-rule="evenodd" d="M133.981 225.717C134.172 225.507 134.498 225.491 134.708 225.682C136.665 227.461 141.206 233.131 144.114 241.854C144.203 242.124 144.058 242.416 143.788 242.505C143.518 242.595 143.227 242.45 143.137 242.18C140.281 233.611 135.833 228.096 134.015 226.444C133.805 226.253 133.79 225.927 133.981 225.717Z" fill="#292929"/>
<path fill-rule="evenodd" clip-rule="evenodd" d="M146.847 225.717C147.038 225.507 147.364 225.491 147.574 225.682C149.531 227.461 154.072 233.131 156.98 241.854C157.07 242.124 156.924 242.416 156.654 242.505C156.385 242.595 156.093 242.45 156.003 242.18C153.147 233.611 148.699 228.096 146.882 226.444C146.671 226.253 146.656 225.927 146.847 225.717Z" fill="#292929"/>
<path fill-rule="evenodd" clip-rule="evenodd" d="M159.199 225.717C159.39 225.507 159.715 225.491 159.926 225.682C161.883 227.461 166.424 233.131 169.331 241.854C169.421 242.124 169.276 242.416 169.006 242.505C168.736 242.595 168.445 242.45 168.355 242.18C165.499 233.611 161.05 228.096 159.233 226.444C159.023 226.253 159.008 225.927 159.199 225.717Z" fill="#292929"/>
<path fill-rule="evenodd" clip-rule="evenodd" d="M53.1285 193.132C67.0216 195.362 97.5989 200.338 108.723 202.398L108.535 203.41C97.4265 201.353 66.8634 196.379 52.9654 194.148L53.1285 193.132Z" fill="#292929"/>
<path fill-rule="evenodd" clip-rule="evenodd" d="M197.669 204.52L192.008 164.377L193.027 164.233L198.688 204.376L197.669 204.52ZM76.2243 197.107L83.9441 168.801L84.9371 169.072L77.2174 197.378L76.2243 197.107Z" fill="#292929"/>
<path d="M7.75779 86.0782H89.5471C90.4026 86.0782 90.885 85.0959 90.3606 84.42C85.9884 78.7839 79.0098 69.8397 78.2648 69.0948C77.4414 68.2713 77.2355 65.3207 77.2355 63.9483V23.2909C77.2355 17.1752 72.5251 14.9287 70.1012 14.5524C70.0531 14.5449 70.0083 14.5419 69.9596 14.5419H9.81639C2.09664 14.5419 0.20959 20.203 0.55269 23.2909V78.8731C0.55269 85.0489 5.35609 86.2497 7.75779 86.0782Z" fill="white"/>
<path fill-rule="evenodd" clip-rule="evenodd" d="M2.56798 18.0734C1.26523 19.7569 0.90561 21.807 1.06418 23.2341L1.06733 23.2624V78.8731C1.06733 81.8068 2.19713 83.4875 3.54972 84.4343C4.93191 85.4018 6.60808 85.6444 7.72111 85.5649L7.73942 85.5636H89.5471C89.9757 85.5636 90.2153 85.0724 89.954 84.7355C87.7682 81.9178 84.9312 78.2737 82.5479 75.2412C81.3561 73.7248 80.2785 72.3624 79.4528 71.3331C78.6143 70.2879 78.0617 69.6194 77.9009 69.4587C77.6078 69.1656 77.4099 68.7327 77.2674 68.2959C77.1203 67.8455 77.0122 67.3265 76.9326 66.805C76.7734 65.7613 76.7209 64.6538 76.7209 63.9483V23.2909C76.7209 20.3818 75.6071 18.4263 74.2274 17.1467C72.8325 15.8531 71.1479 15.2357 70.0222 15.061C70.0029 15.058 69.9847 15.0565 69.9595 15.0565H9.81638C6.09656 15.0565 3.85318 16.4125 2.56798 18.0734ZM1.75394 17.4435C3.25643 15.5018 5.81645 14.0272 9.81638 14.0272H69.9595C70.0318 14.0272 70.1032 14.0319 70.1801 14.0439C71.4783 14.2454 73.361 14.9394 74.9273 16.392C76.5087 17.8587 77.7502 20.0843 77.7502 23.2909V63.9483C77.7502 64.6151 77.8006 65.6691 77.9501 66.6498C78.025 67.1404 78.1227 67.5992 78.2458 67.9765C78.3735 68.3676 78.5101 68.6122 78.6287 68.7309C78.8404 68.9426 79.4394 69.6715 80.2557 70.689C81.0846 71.7223 82.1646 73.0879 83.3571 74.6052C85.7424 77.6401 88.5808 81.2861 90.7672 84.1046C91.5546 85.1195 90.8294 86.5929 89.5471 86.5929H7.77568C6.48712 86.681 4.57155 86.406 2.95946 85.2775C1.30992 84.1229 0.0380269 82.1152 0.0380269 78.8731V23.3188C-0.138541 21.66 0.277601 19.3514 1.75394 17.4435Z" fill="black"/>
<path d="M49.5198 61.3668V55.5698L60.3234 49.5751L49.5198 43.5805V37.8823L65.4946 46.973V52.276L49.5198 61.3668Z" fill="#2962FF"/>
<path d="M34.9596 65.2864H29.1955L41.2507 34.4897H47.0148L34.9596 65.2864Z" fill="#2962FF"/>
<path d="M10.7181 46.973L26.6928 37.8823V43.5805L15.8893 49.5751L26.6928 55.5698V61.3668L10.7181 52.276V46.973Z" fill="#2962FF"/>
<path d="M201.781 6.82212C201.781 3.41132 204.546 0.646317 207.957 0.646317H299.564C302.975 0.646317 305.74 3.41132 305.74 6.82212V87.1075C305.74 90.5183 302.975 93.2833 299.564 93.2833H207.957C204.546 93.2833 201.781 90.5183 201.781 87.1075V6.82212Z" fill="white"/>
<path fill-rule="evenodd" clip-rule="evenodd" d="M299.564 1.67562H207.957C205.114 1.67562 202.81 3.97978 202.81 6.82212V87.1075C202.81 89.9498 205.114 92.254 207.957 92.254H299.564C302.407 92.254 304.711 89.9498 304.711 87.1075V6.82212C304.711 3.97978 302.407 1.67562 299.564 1.67562ZM207.957 0.646317C204.546 0.646317 201.781 3.41132 201.781 6.82212V87.1075C201.781 90.5183 204.546 93.2833 207.957 93.2833H299.564C302.975 93.2833 305.74 90.5183 305.74 87.1075V6.82212C305.74 3.41132 302.975 0.646317 299.564 0.646317H207.957Z" fill="black"/>
<path d="M215.409 26.8317C213.844 26.8317 212.643 26.4817 211.806 25.7818C210.983 25.0956 210.571 24.1761 210.571 23.0233V20.6559C210.571 19.9423 210.413 19.4207 210.098 19.0914C209.782 18.7483 209.281 18.5767 208.595 18.5767V16.724C209.281 16.724 209.782 16.5593 210.098 16.2299C210.413 15.8868 210.571 15.3584 210.571 14.6448V12.2568C210.571 11.104 210.983 10.1845 211.806 9.4983C212.643 8.8121 213.844 8.469 215.409 8.469V10.26C214.517 10.26 213.83 10.459 213.35 10.857C212.883 11.2412 212.65 11.8314 212.65 12.6274V14.8301C212.65 15.5849 212.492 16.2025 212.177 16.6828C211.875 17.1632 211.36 17.4857 210.633 17.6504C211.36 17.815 211.875 18.1376 212.177 18.6179C212.492 19.0982 212.65 19.7158 212.65 20.4706V22.6733C212.65 23.4693 212.883 24.0595 213.35 24.4437C213.83 24.8417 214.517 25.0407 215.409 25.0407V26.8317Z" fill="#2962FF"/>
<path d="M295.2 85.5018C296.765 85.5018 297.965 85.1519 298.803 84.4519C299.626 83.7657 300.038 82.8462 300.038 81.6934V79.326C300.038 78.6124 300.196 78.0909 300.511 77.7615C300.827 77.4184 301.328 77.2468 302.014 77.2468V75.3941C301.328 75.3941 300.827 75.2294 300.511 74.9C300.196 74.5569 300.038 74.0286 300.038 73.3149V70.9269C300.038 69.7741 299.626 68.8546 298.803 68.1684C297.965 67.4822 296.765 67.1391 295.2 67.1391V68.9301C296.092 68.9301 296.778 69.1291 297.259 69.5271C297.725 69.9114 297.959 70.5015 297.959 71.2975V73.5002C297.959 74.255 298.116 74.8726 298.432 75.3529C298.734 75.8333 299.249 76.1558 299.976 76.3205C299.249 76.4852 298.734 76.8077 298.432 77.288C298.116 77.7683 297.959 78.3859 297.959 79.1407V81.3434C297.959 82.1394 297.725 82.7296 297.259 83.1138C296.778 83.5118 296.092 83.7108 295.2 83.7108V85.5018Z" fill="#2962FF"/>
<path fill-rule="evenodd" clip-rule="evenodd" d="M219.279 15.5712C219.279 15.2869 219.509 15.0565 219.794 15.0565H258.907C259.191 15.0565 259.422 15.2869 259.422 15.5712C259.422 15.8554 259.191 16.0858 258.907 16.0858H219.794C219.509 16.0858 219.279 15.8554 219.279 15.5712Z" fill="black"/>
<path fill-rule="evenodd" clip-rule="evenodd" d="M230.087 21.2323C230.087 20.9481 230.317 20.7177 230.601 20.7177H269.715C269.999 20.7177 270.229 20.9481 270.229 21.2323C270.229 21.5165 269.999 21.747 269.715 21.747H230.601C230.317 21.747 230.087 21.5165 230.087 21.2323Z" fill="black"/>
<path fill-rule="evenodd" clip-rule="evenodd" d="M218.764 27.4081C218.764 27.1239 218.995 26.8935 219.279 26.8935H249.129C249.413 26.8935 249.643 27.1239 249.643 27.4081C249.643 27.6923 249.413 27.9228 249.129 27.9228H219.279C218.995 27.9228 218.764 27.6923 218.764 27.4081Z" fill="black"/>
<path fill-rule="evenodd" clip-rule="evenodd" d="M254.79 27.4081C254.79 27.1239 255.02 26.8935 255.304 26.8935H281.037C281.321 26.8935 281.552 27.1239 281.552 27.4081C281.552 27.6923 281.321 27.9228 281.037 27.9228H255.304C255.02 27.9228 254.79 27.6923 254.79 27.4081Z" fill="black"/>
<path fill-rule="evenodd" clip-rule="evenodd" d="M233.174 33.5839C233.174 33.2997 233.405 33.0693 233.689 33.0693H267.656C267.94 33.0693 268.171 33.2997 268.171 33.5839C268.171 33.8681 267.94 34.0986 267.656 34.0986H233.689C233.405 34.0986 233.174 33.8681 233.174 33.5839Z" fill="black"/>
<path fill-rule="evenodd" clip-rule="evenodd" d="M223.911 39.7597C223.911 39.4755 224.141 39.2451 224.425 39.2451H284.125C284.409 39.2451 284.639 39.4755 284.639 39.7597C284.639 40.0439 284.409 40.2744 284.125 40.2744H224.425C224.141 40.2744 223.911 40.0439 223.911 39.7597Z" fill="black"/>
<path fill-rule="evenodd" clip-rule="evenodd" d="M213.618 45.9355C213.618 45.6513 213.848 45.4209 214.132 45.4209H285.154C285.438 45.4209 285.669 45.6513 285.669 45.9355C285.669 46.2197 285.438 46.4502 285.154 46.4502H214.132C213.848 46.4502 213.618 46.2197 213.618 45.9355Z" fill="black"/>
<path fill-rule="evenodd" clip-rule="evenodd" d="M238.321 52.1113C238.321 51.8271 238.551 51.5967 238.836 51.5967H280.008C280.292 51.5967 280.522 51.8271 280.522 52.1113C280.522 52.3955 280.292 52.626 280.008 52.626H238.836C238.551 52.626 238.321 52.3955 238.321 52.1113Z" fill="black"/>
<path fill-rule="evenodd" clip-rule="evenodd" d="M216.706 58.2871C216.706 58.0029 216.936 57.7725 217.22 57.7725H245.011C245.296 57.7725 245.526 58.0029 245.526 58.2871C245.526 58.5714 245.296 58.8018 245.011 58.8018H217.22C216.936 58.8018 216.706 58.5714 216.706 58.2871Z" fill="black"/>
<path fill-rule="evenodd" clip-rule="evenodd" d="M253.76 58.2871C253.76 58.0029 253.991 57.7725 254.275 57.7725H286.183C286.468 57.7725 286.698 58.0029 286.698 58.2871C286.698 58.5714 286.468 58.8018 286.183 58.8018H254.275C253.991 58.8018 253.76 58.5714 253.76 58.2871Z" fill="black"/>
<path fill-rule="evenodd" clip-rule="evenodd" d="M228.028 64.4629C228.028 64.1787 228.258 63.9482 228.543 63.9482H260.451C260.735 63.9482 260.966 64.1787 260.966 64.4629C260.966 64.7471 260.735 64.9775 260.451 64.9775H228.543C228.258 64.9775 228.028 64.7471 228.028 64.4629Z" fill="black"/>
<path fill-rule="evenodd" clip-rule="evenodd" d="M222.881 71.668C222.881 71.3838 223.112 71.1534 223.396 71.1534H273.832C274.116 71.1534 274.346 71.3838 274.346 71.668C274.346 71.9522 274.116 72.1827 273.832 72.1827H223.396C223.112 72.1827 222.881 71.9522 222.881 71.668Z" fill="black"/>
<path fill-rule="evenodd" clip-rule="evenodd" d="M225.969 78.8731C225.969 78.5889 226.2 78.3585 226.484 78.3585H262.51C262.794 78.3585 263.024 78.5889 263.024 78.8731C263.024 79.1573 262.794 79.3878 262.51 79.3878H226.484C226.2 79.3878 225.969 79.1573 225.969 78.8731Z" fill="black"/>
<path fill-rule="evenodd" clip-rule="evenodd" d="M268.171 78.8731C268.171 78.5889 268.401 78.3585 268.685 78.3585H285.154C285.438 78.3585 285.669 78.5889 285.669 78.8731C285.669 79.1573 285.438 79.3878 285.154 79.3878H268.685C268.401 79.3878 268.171 79.1573 268.171 78.8731Z" fill="black"/>
<path fill-rule="evenodd" clip-rule="evenodd" d="M228.028 178.201H299.564C300.531 178.201 301.347 178.403 302.009 178.795C302.676 179.19 303.124 179.742 303.404 180.336C303.943 181.482 303.856 182.775 303.651 183.597L303.637 183.651L303.618 183.703C295.904 204.617 280.25 247.014 279.419 249.09C278.433 251.556 276.465 252.31 275.376 252.31V251.796V251.281H275.374C275.375 251.281 275.376 251.281 275.376 251.796C275.376 252.31 275.375 252.31 275.374 252.31H127.671C126.94 252.31 126.369 252.126 125.944 251.788C125.521 251.452 125.297 251.007 125.18 250.58C125.065 250.157 125.049 249.731 125.058 249.394C125.062 249.224 125.073 249.071 125.082 248.949L125.085 248.915C125.093 248.803 125.098 248.743 125.098 248.708C125.115 248.574 125.217 248.378 125.279 248.315C125.319 248.283 125.39 248.241 125.42 248.227C125.473 248.205 125.52 248.195 125.538 248.192C125.585 248.182 125.634 248.177 125.675 248.173C125.761 248.165 125.88 248.159 126.024 248.154C126.314 248.143 126.741 248.136 127.29 248.131C128.391 248.122 130.002 248.123 132.05 248.134C136.147 248.155 141.999 248.213 149.019 248.298C163.061 248.466 181.782 248.74 200.502 249.029C219.223 249.319 237.943 249.624 251.984 249.858C259.004 249.974 264.854 250.073 268.949 250.142C270.997 250.177 272.606 250.204 273.703 250.223L275.378 250.252L275.379 250.252C275.668 250.249 276.85 249.971 277.508 248.325C278.324 246.286 293.933 204.012 301.666 183.047C301.792 182.5 301.8 181.763 301.541 181.212C301.417 180.948 301.234 180.728 300.96 180.566C300.68 180.4 300.245 180.259 299.564 180.259H228.028V178.201ZM275.376 250.766C275.367 251.281 275.366 251.281 275.365 251.281L273.685 251.252C272.588 251.233 270.979 251.206 268.932 251.171C264.837 251.102 258.987 251.003 251.967 250.887C237.927 250.654 219.206 250.348 200.486 250.059C181.766 249.769 163.046 249.496 149.007 249.327C141.987 249.242 136.138 249.184 132.045 249.163C129.998 249.152 128.392 249.151 127.299 249.161C126.776 249.165 126.373 249.172 126.098 249.181C126.093 249.257 126.089 249.337 126.087 249.42C126.079 249.711 126.096 250.024 126.173 250.309C126.25 250.59 126.38 250.82 126.584 250.983C126.787 251.143 127.115 251.281 127.671 251.281H275.367L275.376 250.766Z" fill="white"/>
<path d="M225.455 89.1661L222.881 97.4005L246.555 96.8859L262.51 90.1954L225.455 89.1661Z" fill="white"/>
<path d="M121.495 246.649C121.495 243.355 124.24 242.532 125.613 242.532H179.136C186.513 222.804 201.369 182.935 201.781 181.288C202.193 179.642 204.697 179.23 205.898 179.23H299.564C302.858 179.23 302.995 181.975 302.652 183.347C294.932 204.276 279.287 246.649 278.464 248.708C277.64 250.766 276.062 251.281 275.376 251.281L125.613 251.281C124.24 251.109 121.495 249.943 121.495 246.649Z" fill="#292929"/>
</svg>
