<svg width="408" height="32" viewBox="0 0 408 32" fill="none" xmlns="http://www.w3.org/2000/svg">
<path d="M46 16H174" stroke="#DDDFE0"/>
<path d="M202.344 16.3594H197.281V10.0938H202.203V11.2969H198.766V15.1719H202.344V16.3594ZM203.328 21.0781H190.516V19.875H196.141V17.0312H197.594V19.875H203.328V21.0781ZM196.406 11.3125H193.062V15.1406C193.677 15.1302 194.263 15.0964 194.82 15.0391C195.383 14.9818 195.953 14.8906 196.531 14.7656L196.656 16C195.974 16.151 195.315 16.25 194.68 16.2969C194.044 16.3385 193.286 16.3594 192.406 16.3594H191.578V10.1094H196.406V11.3125ZM215.672 14.1094H206.031V9.32812H207.5V12.9219H215.672V14.1094ZM217.141 17.0625H204.328V15.875H217.141V17.0625ZM215.766 22.5H205.922V18.3906H207.406V21.2812H215.766V22.5Z" fill="#888888"/>
<path d="M234 16H362" stroke="#DDDFE0"/>
</svg>
