<svg width="20" height="20" viewBox="0 0 20 20" fill="none" xmlns="http://www.w3.org/2000/svg">
<path d="M17.0022 0C17.8306 0 18.5022 0.671572 18.5022 1.5V14.2842C18.5021 15.4304 17.2686 16.1534 16.2688 15.5928L15.4504 15.1328V13.9873L16.7581 14.7207C17.0913 14.9075 17.5021 14.6662 17.5022 14.2842V1.5C17.5022 1.22386 17.2783 1 17.0022 1H7.16235C6.88621 1 6.66235 1.22386 6.66235 1.5V3.0752H5.66235V1.5C5.66235 0.671572 6.33393 0 7.16235 0H17.0022Z" fill="#737373"/>
<path d="M7.35423 16.6213C7.8468 16.4235 8.40681 16.4565 8.87705 16.7202L12.4604 18.73L12.5355 18.7649C12.9139 18.9137 13.3403 18.6347 13.3403 18.2086V5.93689C13.3403 5.60781 13.0752 5.34105 12.7483 5.34105H3.27604C2.94908 5.34105 2.68403 5.60781 2.68403 5.93689V18.2086C2.68403 18.6631 3.16942 18.9508 3.56396 18.73L7.14726 16.7202L7.35423 16.6213ZM14.5243 18.2086C14.5243 19.4872 13.2443 20.3245 12.1088 19.8774L11.8834 19.7704L8.30007 17.7606C8.1433 17.6728 7.9566 17.662 7.79246 17.728L7.72424 17.7606L4.14094 19.7704C2.95712 20.4342 1.5 19.5725 1.5 18.2086V5.93689C1.5 4.94967 2.29516 4.14937 3.27604 4.14937H12.7483C13.7292 4.14937 14.5243 4.94967 14.5243 5.93689V18.2086Z" fill="#737373"/>
</svg>
