<svg width="20" height="21" viewBox="0 0 20 21" fill="none" xmlns="http://www.w3.org/2000/svg">
<path d="M4.66667 14.9444H15.3333L12 10.5L9.33333 14.0556L7.33333 11.3889L4.66667 14.9444ZM3.77778 18.5C3.28889 18.5 2.87022 18.3261 2.52178 17.9782C2.17393 17.6298 2 17.2111 2 16.7222V4.27778C2 3.78889 2.17393 3.37022 2.52178 3.02178C2.87022 2.67393 3.28889 2.5 3.77778 2.5H16.2222C16.7111 2.5 17.1298 2.67393 17.4782 3.02178C17.8261 3.37022 18 3.78889 18 4.27778V16.7222C18 17.2111 17.8261 17.6298 17.4782 17.9782C17.1298 18.3261 16.7111 18.5 16.2222 18.5H3.77778ZM3.77778 16.7222H16.2222V4.27778H3.77778V16.7222Z" fill="white"/>
</svg>
